# xmcd CD database file
#
# Track frame offsets:
#	150
#	24556
#	49599
#	79740
#	105424
#	128704
#	153494
#	185968
#	213517
#	234048
#	247669
#
# Disc length: 3731 seconds
#
# Revision: 0
# Processed by: cddbd v1.5.2PL0 Copyright (c) Steve Scherf et al.
# Submitted via: CDex 1.51
#
DISCID=820e910b
DTITLE=Tracy Chapman - New Beginning
DYEAR=2005
DGENRE=Blues
TTITLE0=Tracy Chapman - Heaven's Here On Earth
TTITLE1=Tracy Chapman - New Beginning
TTITLE2=Tracy Chapman - Smoke And Ashes
TTITLE3=Tracy Chapman - Cold Feet
TTITLE4=Tracy Chapman - At This Point In My Life
TTITLE5=Tracy Chapman - The Promise
TTITLE6=Tracy Chapman - The Rape of the World
TTITLE7=Tracy Chapman - Tell It Like It Is
TTITLE8=Tracy Chapman - Give Me One Reason
TTITLE9=Tracy Chapman - Remember the Tinman
TTITLE10=Tracy Chapman - I'm Ready
EXTD=YEAR: 2005
EXTT0=
EXTT1=
EXTT2=
EXTT3=
EXTT4=
EXTT5=
EXTT6=
EXTT7=
EXTT8=
EXTT9=
EXTT10=
PLAYORDER=
